<svg width="174" height="41" viewBox="0 0 174 41" fill="none" xmlns="http://www.w3.org/2000/svg">
<path d="M154.194 13.833L147.608 20.4325L166.281 39.2296C166.688 39.639 167.24 39.8689 167.816 39.8689C168.392 39.8689 168.944 39.639 169.352 39.2296L172.851 35.7077C173.257 35.2974 173.486 34.7414 173.486 34.1618C173.486 33.5821 173.257 33.0262 172.851 32.6158L154.192 13.833H154.194Z" fill="white"/>
<path fill-rule="evenodd" clip-rule="evenodd" d="M68.0125 11.0527C73.8401 11.0527 78.3741 15.6721 78.3741 21.1188C78.3741 26.5655 73.8483 31.1829 68.0125 31.1829V31.1849H52.5005C51.3004 31.1849 50.3281 32.1637 50.3281 33.3738V38.3495C50.3281 39.5576 51.3004 40.5405 52.5005 40.5405H68.0145V40.5384C78.7606 40.5384 87.6598 31.9466 87.6598 21.1188C87.6598 10.2869 78.7484 1.69714 68.0125 1.69714H52.4985C51.2983 1.69714 50.326 2.67795 50.326 3.8881V8.86381C50.326 10.0719 51.2983 11.0548 52.4985 11.0548H68.0125V11.0527Z" fill="white"/>
<path d="M147.622 20.4143L154.18 27.0425L172.853 8.24532C173.26 7.83524 173.489 7.27917 173.489 6.69937C173.489 6.11957 173.26 5.5635 172.853 5.15342L169.352 1.63151C168.944 1.22151 168.392 0.991211 167.815 0.991211C167.239 0.991211 166.686 1.22151 166.279 1.63151L147.622 20.4143ZM35.7224 3.90642C35.7224 2.69832 36.6927 1.72161 37.8908 1.71751L42.8336 1.70523C43.1195 1.70415 43.4028 1.75984 43.6673 1.8691C43.9318 1.97837 44.1723 2.13906 44.375 2.34199C44.5777 2.54493 44.7387 2.78611 44.8487 3.05174C44.9587 3.31737 45.0156 3.60224 45.0162 3.89004V38.3515C45.0162 39.5596 44.0439 40.5383 42.8438 40.5383H37.8969C36.6967 40.5383 35.7244 39.5596 35.7244 38.3515L35.7224 3.90642ZM120.656 31.2032C121.856 31.2032 122.828 32.1799 122.83 33.386L122.838 38.3658C122.838 38.9465 122.609 39.5035 122.202 39.9143C121.794 40.3251 121.241 40.5562 120.664 40.5568H95.1484C93.9483 40.5568 92.9739 39.578 92.9739 38.3678V33.3921C92.9739 32.184 93.9483 31.2012 95.1484 31.2012H120.656V31.2032Z" fill="white"/>
<path d="M132.263 16.4499C133.463 16.4499 134.434 17.4246 134.438 18.6327L134.45 23.6084C134.451 23.8962 134.395 24.1813 134.286 24.4475C134.178 24.7136 134.018 24.9556 133.816 25.1594C133.614 25.3633 133.374 25.5252 133.11 25.6357C132.847 25.7462 132.563 25.8032 132.278 25.8035H95.1371C93.937 25.8035 92.9626 24.8247 92.9626 23.6145V18.6388C92.9626 17.4307 93.937 16.4479 95.1391 16.4479H132.263V16.4499Z" fill="#E3163B"/>
<path fill-rule="evenodd" clip-rule="evenodd" d="M30.4625 3.85281C30.4609 3.27369 30.2314 2.71882 29.8242 2.30971C29.417 1.9006 28.8654 1.67058 28.2901 1.67004H2.7826C2.20606 1.67059 1.6533 1.90138 1.24563 2.31176C0.837958 2.72214 0.608693 3.27858 0.608154 3.85895V8.83466C0.608154 10.0448 1.58248 11.0256 2.7826 11.0256H10.8925V38.3511C10.8925 39.5592 11.8668 40.5379 13.067 40.5379H18.0118C19.212 40.5379 20.1863 39.5592 20.1863 38.3511V11.0256H28.3003C29.5004 11.0256 30.4767 10.0428 30.4727 8.83262L30.4625 3.85281Z" fill="white"/>
<path d="M120.654 1.69897C121.854 1.69897 122.824 2.67569 122.826 3.88378L122.836 8.8595C122.837 9.14722 122.781 9.43218 122.672 9.6981C122.562 9.96402 122.402 10.2057 122.2 10.4093C121.998 10.613 121.759 10.7746 121.495 10.8849C121.231 10.9953 120.948 11.0522 120.662 11.0525H95.1403C93.9402 11.0525 92.9658 10.0737 92.9658 8.86564V3.88788C92.9658 2.67978 93.9401 1.69897 95.1423 1.69897H120.654Z" fill="white"/>
<path d="M154.176 13.833L160.76 20.4325L142.089 39.2296C141.681 39.639 141.129 39.8689 140.553 39.8689C139.978 39.8689 139.425 39.639 139.018 39.2296L135.519 35.7077C135.112 35.2976 134.883 34.7416 134.883 34.1618C134.883 33.582 135.112 33.0259 135.519 32.6158L154.176 13.833Z" fill="#E3163B"/>
<path d="M160.748 20.4142L154.19 27.0423L135.519 8.24516C135.113 7.83481 134.884 7.27884 134.884 6.6992C134.884 6.11957 135.113 5.5636 135.519 5.15325L139.018 1.63135C139.426 1.22197 139.978 0.992065 140.554 0.992065C141.13 0.992065 141.682 1.22197 142.09 1.63135L160.748 20.4142Z" fill="#E3163B"/>
</svg>
