<svg width="167" height="114" viewBox="0 0 167 114" fill="none" xmlns="http://www.w3.org/2000/svg">
<g opacity="0.9">
<path d="M82.7698 113.35C38.7392 113.35 3.04541 92.7118 3.04541 67.2531C3.04541 41.7945 38.7392 21.1562 82.7698 21.1562C126.8 21.1562 162.494 41.7945 162.494 67.2531C162.494 92.7118 126.8 113.35 82.7698 113.35Z" fill="url(#paint0_linear_9244_77929)"/>
<path opacity="0.48" d="M3.03873 52.0765H5.00917C8.20918 43.8675 15.3343 36.061 26.3925 29.6753C57.5256 11.6707 108.008 11.6707 139.102 29.6753C149.546 35.7137 156.442 43.0071 159.918 50.7189H162.417V60.9407C163.039 73.1833 155.268 85.5442 139.102 94.882C107.969 112.879 57.4862 112.879 26.3531 94.882C10.7865 85.8757 2.99933 74.0831 2.99933 62.2826L3.03873 52.0765Z" fill="url(#paint1_linear_9244_77929)"/>
<path opacity="0.48" d="M3.03873 52.0765H5.00917C8.20918 43.8675 15.3343 36.061 26.3925 29.6753C57.5256 11.6707 108.008 11.6707 139.102 29.6753C149.546 35.7137 156.442 43.0071 159.918 50.7189H162.417V60.9407C163.039 73.1833 155.268 85.5442 139.102 94.882C107.969 112.879 57.4862 112.879 26.3531 94.882C10.7865 85.8757 2.99933 74.0831 2.99933 62.2826L3.03873 52.0765Z" fill="url(#paint2_linear_9244_77929)"/>
<path opacity="0.48" d="M3.03873 52.0765H5.00917C8.20918 43.8675 15.3343 36.061 26.3925 29.6753C57.5256 11.6707 108.008 11.6707 139.102 29.6753C149.546 35.7137 156.442 43.0071 159.918 50.7189H162.417V60.9407C163.039 73.1833 155.268 85.5442 139.102 94.882C107.969 112.879 57.4862 112.879 26.3531 94.882C10.7865 85.8757 2.99933 74.0831 2.99933 62.2826L3.03873 52.0765Z" fill="url(#paint3_linear_9244_77929)"/>
<path d="M3.03873 48.1293H5.00917C8.20918 39.9124 15.3343 32.1138 26.3925 25.7203C57.5256 7.71564 108.008 7.71564 139.102 25.7203C149.546 31.7586 156.442 39.052 159.918 46.7559H162.417V57.0172C163.039 69.2676 155.268 81.6285 139.102 90.9584C107.969 108.963 57.4862 108.963 26.3531 90.9584C10.7865 81.96 2.99933 70.1595 2.99933 58.367L3.03873 48.1293Z" fill="url(#paint4_linear_9244_77929)"/>
<path opacity="0.48" d="M5.0092 48.1141C5.11954 47.83 5.23778 47.5458 5.36389 47.2616V40.5444H9.54123V40.063C10.6328 38.5963 11.8175 37.2016 13.088 35.8874V40.5444H15.4526V33.5747C16.5613 32.5643 17.7488 31.575 19.0152 30.6068V40.5602H21.3797V28.8387C22.5226 28.0493 23.7442 27.26 24.958 26.518V40.5208H27.3226V25.1288C28.4891 24.471 29.6845 23.8396 30.9088 23.2344V40.5208H33.2733V22.1373C34.4556 21.611 35.6536 21.0848 36.8674 20.5586V40.5208H39.232V24.379H42.8339V40.5444H45.1985V28.8387H48.8162V40.5681H51.1808V33.2747H54.8064V40.5681H57.1236V37.7186H60.7256V40.5681H104.753V37.7186H108.395V40.5681H110.712V33.2747H114.322V40.5681H116.686V28.8387H120.304V40.5681H122.669V24.379H126.271V40.5444H128.635V20.5665C129.849 21.0611 131.047 21.5874 132.229 22.1452V40.5681H134.594V23.2423C135.815 23.8501 137.014 24.4737 138.18 25.1288V40.5444H140.545V26.518C141.79 27.2653 142.983 28.0362 144.123 28.8308V40.5444H146.487V30.5673C147.756 31.5303 148.939 32.5248 150.05 33.5352V40.5444H152.415V35.8085C153.68 37.1241 154.865 38.5159 155.961 39.9761V40.505H160.139V46.7012H161.912V63.8376C161.221 67.0372 160.026 70.1064 158.373 72.9307V62.251H155.961V76.5932C154.869 78.0544 153.685 79.4438 152.415 80.7529V62.251H150.05V83.0736C148.939 84.076 147.749 85.0706 146.487 86.0336V62.251H144.123V87.7701C142.977 88.5594 141.785 89.333 140.545 90.0907V62.251H138.18V91.4563C137.014 92.1035 135.818 92.7323 134.594 93.3428V62.251H132.229V94.4794C131.047 95.0056 129.849 95.5318 128.635 96.0581V62.2747H126.271V97.0052C125.088 97.4552 123.906 97.8814 122.669 98.2919V62.251H120.304V98.9865C119.106 99.3575 117.94 99.7048 116.686 100.036V62.251H114.322V100.668C113.124 100.96 111.918 101.244 110.696 101.504V62.2747H108.379V101.986C107.173 102.223 105.959 102.436 104.738 102.641V62.251H102.428V102.973C101.222 103.154 100.001 103.312 98.7789 103.462V62.251H96.4853V103.715C95.2715 103.833 94.0499 103.936 92.8203 104.03V62.251H90.5424V104.18C89.3129 104.243 88.0912 104.299 86.8617 104.338V62.251H84.5917V104.385C83.3516 104.385 82.1142 104.385 80.8794 104.385V62.251H78.6094V104.338C77.3799 104.338 76.1582 104.243 74.9286 104.18V62.251H72.6508V104.03C71.4212 103.936 70.1995 103.833 68.9857 103.707V62.251H66.6921V103.454C65.4705 103.312 64.2488 103.146 63.0429 102.973V62.251H60.7256V102.609C59.5039 102.412 58.2901 102.191 57.0842 101.954V62.251H54.767V101.457C53.5453 101.189 52.3394 100.912 51.1413 100.612V62.251H48.7768V100.028C47.563 99.6969 46.3571 99.3417 45.1591 98.9786V62.251H42.7945V98.2208C41.5807 97.8183 40.3748 97.4315 39.1925 96.9421V62.251H36.828V96.0186C35.6142 95.5213 34.4162 95.0082 33.2339 94.4399V62.251H30.8694V93.3428C29.6451 92.7323 28.4497 92.1035 27.2832 91.4563V62.251H24.9186V90.0749C23.6733 89.3172 22.4805 88.541 21.3403 87.7464V62.251H18.9757V86.0099C17.7146 85.0364 16.5271 84.0471 15.4132 83.042V62.251H13.0486V80.7293C11.7763 79.4168 10.5914 78.0219 9.50183 76.5537V62.251H7.12939V72.8991C5.46326 70.0502 4.26819 66.9502 3.59048 63.7192V48.122L5.0092 48.1141Z" fill="url(#paint5_linear_9244_77929)"/>
<path d="M82.7698 94.225C38.7392 94.225 3.04541 73.5867 3.04541 48.1281C3.04541 22.6695 38.7392 2.03122 82.7698 2.03122C126.8 2.03122 162.494 22.6695 162.494 48.1281C162.494 73.5867 126.8 94.225 82.7698 94.225Z" fill="url(#paint6_linear_9244_77929)"/>
<path opacity="0.3" d="M82.7384 2C100.804 2 118.869 5.5283 133.576 12.577L157.363 64.3571C153.485 70.3166 147.424 75.8971 139.141 80.6884C133.795 83.7367 128.151 86.2282 122.297 88.1238L82.7384 2Z" fill="url(#paint7_linear_9244_77929)"/>
<path opacity="0.3" d="M60.4 3.87891L101.322 92.9627C91.4334 94.3076 81.4278 94.5722 71.4818 93.7521L33.8147 11.7485C42.3053 8.00136 51.2395 5.35671 60.4 3.87891Z" fill="url(#paint8_linear_9244_77929)"/>
<g opacity="0.05">
<path opacity="0.05" d="M82.7699 88.951C43.7757 88.951 12.1647 70.6735 12.1647 48.1269C12.1647 25.5803 43.7757 7.30273 82.7699 7.30273C121.764 7.30273 153.375 25.5803 153.375 48.1269C153.375 70.6735 121.764 88.951 82.7699 88.951Z" fill="url(#paint9_linear_9244_77929)"/>
</g>
<path d="M132.693 22.0099C105.107 6.07334 60.417 6.07334 32.8386 22.0099C19.6602 29.6348 12.7873 39.5172 12.204 49.5023C11.5735 38.6016 18.4464 27.5826 32.8386 19.263C60.4249 3.31857 105.123 3.31857 132.693 19.263C147.085 27.5826 153.974 38.6016 153.328 49.5023C152.744 39.5172 145.848 29.6269 132.693 22.0099Z" fill="url(#paint10_linear_9244_77929)"/>
</g>
<g clip-path="url(#clip0_9244_77929)">
<g opacity="0.3" filter="url(#filter0_b_9244_77929)">
<path d="M119.728 27.0487C99.6345 15.4478 66.9436 15.4478 46.8502 27.0487C26.7568 38.6497 26.7568 57.5237 46.8502 69.1246C66.9436 80.7256 99.6345 80.7256 119.728 69.1246C139.821 57.5237 139.821 38.6496 119.728 27.0487ZM57.2613 63.1138C42.92 54.8339 42.92 41.3395 57.2613 33.0596C71.6026 24.7796 94.9755 24.7796 109.317 33.0596C123.658 41.3395 123.658 54.8339 109.317 63.1138C94.9755 71.3937 71.6026 71.3937 57.2613 63.1138Z" fill="url(#paint11_linear_9244_77929)" fill-opacity="0.7"/>
<path d="M104.113 36.0647C92.635 29.4377 73.9471 29.4377 62.4688 36.0647C50.9906 42.6916 50.9906 53.4811 62.4688 60.1081C73.9471 66.735 92.635 66.735 104.113 60.1081C115.591 53.4811 115.591 42.6916 104.113 36.0647ZM91.0213 56.3663L86.3883 55.5849C84.3842 55.2393 82.2499 55.2393 80.1937 55.5849L75.5608 56.3663C73.6868 56.6668 71.6827 56.3813 70.3032 55.5849C68.9237 54.7885 68.4292 53.6314 68.9497 52.5494L70.3032 49.8746C70.9018 48.6874 70.9018 47.4552 70.3032 46.2981L68.9497 43.6233C68.3771 42.5414 68.8977 41.3692 70.2772 40.5728C71.6566 39.7764 73.6868 39.4758 75.5608 39.8064L80.1937 40.5878C82.1979 40.9334 84.3321 40.9334 86.3883 40.5878L91.0213 39.8064C92.8952 39.5059 94.8994 39.7914 96.2789 40.5878C97.6583 41.3843 98.1529 42.5414 97.6323 43.6233L96.2789 46.2981C95.7062 47.4702 95.6802 48.7175 96.2789 49.8746L97.6323 52.5494C98.2049 53.6314 97.6844 54.8035 96.3049 55.5999C94.9254 56.3964 92.8953 56.6969 91.0213 56.3663Z" fill="url(#paint12_linear_9244_77929)" fill-opacity="0.7"/>
</g>
</g>
<defs>
<filter id="filter0_b_9244_77929" x="16.7803" y="3.34802" width="133.018" height="89.4773" filterUnits="userSpaceOnUse" color-interpolation-filters="sRGB">
<feFlood flood-opacity="0" result="BackgroundImageFix"/>
<feGaussianBlur in="BackgroundImage" stdDeviation="7.5"/>
<feComposite in2="SourceAlpha" operator="in" result="effect1_backgroundBlur_9244_77929"/>
<feBlend mode="normal" in="SourceGraphic" in2="effect1_backgroundBlur_9244_77929" result="shape"/>
</filter>
<linearGradient id="paint0_linear_9244_77929" x1="84.6522" y1="3.31016" x2="41.5466" y2="118.123" gradientUnits="userSpaceOnUse">
<stop stop-color="#503BCF"/>
<stop offset="1" stop-color="#4A4184"/>
</linearGradient>
<linearGradient id="paint1_linear_9244_77929" x1="84.6077" y1="-1.67689" x2="41.4915" y2="113.149" gradientUnits="userSpaceOnUse">
<stop stop-color="#503BCF"/>
<stop offset="1" stop-color="#4A4184"/>
</linearGradient>
<linearGradient id="paint2_linear_9244_77929" x1="84.6077" y1="-1.67689" x2="41.4915" y2="113.149" gradientUnits="userSpaceOnUse">
<stop stop-color="#503BCF"/>
<stop offset="1" stop-color="#4A4184"/>
</linearGradient>
<linearGradient id="paint3_linear_9244_77929" x1="84.6077" y1="-1.67689" x2="41.4915" y2="113.149" gradientUnits="userSpaceOnUse">
<stop stop-color="#503BCF"/>
<stop offset="1" stop-color="#4A4184"/>
</linearGradient>
<linearGradient id="paint4_linear_9244_77929" x1="84.6077" y1="-5.63922" x2="41.4608" y2="109.222" gradientUnits="userSpaceOnUse">
<stop stop-color="#503BCF"/>
<stop offset="1" stop-color="#4A4184"/>
</linearGradient>
<linearGradient id="paint5_linear_9244_77929" x1="84.6204" y1="4.3321" x2="47.9996" y2="110.85" gradientUnits="userSpaceOnUse">
<stop stop-color="#503BCF"/>
<stop offset="1" stop-color="#4A4184"/>
</linearGradient>
<linearGradient id="paint6_linear_9244_77929" x1="84.6522" y1="-15.8149" x2="41.5467" y2="98.9979" gradientUnits="userSpaceOnUse">
<stop stop-color="#AA9CFF"/>
<stop offset="1" stop-color="#5C4EF5"/>
</linearGradient>
<linearGradient id="paint7_linear_9244_77929" x1="120.932" y1="-14.6711" x2="62.2071" y2="63.6934" gradientUnits="userSpaceOnUse">
<stop stop-color="#503BCF"/>
<stop offset="1" stop-color="#4A4184"/>
</linearGradient>
<linearGradient id="paint8_linear_9244_77929" x1="68.3654" y1="-13.608" x2="4.81365" y2="59.5304" gradientUnits="userSpaceOnUse">
<stop stop-color="#503BCF"/>
<stop offset="1" stop-color="#4A4184"/>
</linearGradient>
<linearGradient id="paint9_linear_9244_77929" x1="84.4369" y1="-8.50205" x2="46.262" y2="93.178" gradientUnits="userSpaceOnUse">
<stop stop-color="#503BCF"/>
<stop offset="1" stop-color="#4A4184"/>
</linearGradient>
<linearGradient id="paint10_linear_9244_77929" x1="84.4337" y1="-0.863559" x2="73.2215" y2="56.9185" gradientUnits="userSpaceOnUse">
<stop stop-color="#503BCF"/>
<stop offset="1" stop-color="#4A4184"/>
</linearGradient>
<linearGradient id="paint11_linear_9244_77929" x1="119.728" y1="27.0487" x2="83.2891" y2="90.1626" gradientUnits="userSpaceOnUse">
<stop stop-color="white"/>
<stop offset="1" stop-color="white" stop-opacity="0.5"/>
</linearGradient>
<linearGradient id="paint12_linear_9244_77929" x1="104.113" y1="36.0647" x2="83.291" y2="72.1297" gradientUnits="userSpaceOnUse">
<stop stop-color="white"/>
<stop offset="1" stop-color="white" stop-opacity="0.5"/>
</linearGradient>
<clipPath id="clip0_9244_77929">
<rect width="96.1736" height="96.1736" fill="white" transform="matrix(0.866025 0.5 -0.866025 0.5 83.2891 0)"/>
</clipPath>
</defs>
</svg>
