<svg width="115" height="168" viewBox="0 0 115 168" fill="none" xmlns="http://www.w3.org/2000/svg">
<path d="M97.6323 115.236C118.554 127.342 118.685 146.815 97.8955 158.921C77.1058 171.026 43.2897 171.026 22.5001 158.921C1.57883 146.815 1.44727 127.21 22.2369 115.236C42.895 103.131 76.7111 103.131 97.6323 115.236Z" fill="url(#paint0_linear_9244_77866)"/>
<path d="M91.0525 119.052C108.289 129.052 108.421 145.236 91.1841 155.236C74.0786 165.236 46.0521 165.236 28.8151 155.236C11.5781 145.236 11.4465 129.052 28.5519 119.052C45.7889 109.052 73.8155 109.052 91.0525 119.052Z" fill="url(#paint1_linear_9244_77866)"/>
<path d="M96.978 124.316V135.105C96.978 140.5 93.4253 146.027 86.1884 150.106C71.8462 158.527 48.2934 158.527 33.8196 150.106C26.5827 145.895 22.8984 140.369 22.8984 134.842V124.053C22.8984 129.579 26.5827 135.105 33.8196 139.316C48.2934 147.737 71.7146 147.737 86.1884 139.316C93.4253 135.237 96.978 129.711 96.978 124.316Z" fill="url(#paint2_linear_9244_77866)"/>
<path opacity="0.8" d="M86.0571 109.052C100.531 117.473 100.662 131.026 86.1887 139.316C71.8464 147.737 48.2936 147.737 33.8198 139.316C19.346 130.894 19.2144 117.342 33.6882 109.052C48.162 100.631 71.5833 100.631 86.0571 109.052Z" fill="url(#paint3_linear_9244_77866)"/>
<path opacity="0.7" d="M96.9745 110.894C97.1061 116.421 93.4219 121.947 86.3165 126.158C79.0796 130.368 69.6059 132.474 60.1321 132.474H60.0005C50.5268 132.474 41.1846 130.368 33.9477 126.158C26.5792 121.947 23.0265 116.421 23.0265 110.894L0 19.9727L114.08 43.7886L96.9745 110.894Z" fill="url(#paint4_linear_9244_77866)"/>
<path opacity="0.8" d="M51.8475 0L87.944 9.98378C95.6873 41.2727 92.6296 74.5064 69.7897 89.3081C41.2313 75.6597 24.9034 42.8354 20.0604 11.5124L51.8475 0Z" fill="url(#paint5_linear_9244_77866)"/>
<path opacity="0.8" d="M17.2357 33.029C17.1604 32.7834 17.092 32.5445 17.0236 32.2988C16.8321 31.6164 16.6474 30.9886 16.4695 30.3403L16.2233 29.4327C16.1617 29.1802 16.0865 28.9345 16.0249 28.682C15.9633 28.4295 15.9018 28.1907 15.8402 27.9518C15.6761 27.3035 15.5187 26.6621 15.3682 26.0206C15.2656 25.5907 15.163 25.1676 15.0673 24.7377C14.9168 24.0552 14.7731 23.4274 14.6363 22.7655C14.5474 22.3628 14.4585 21.9534 14.3764 21.5439C14.2327 20.8615 14.0959 20.1109 13.9591 19.4011C13.8976 19.0531 13.8292 18.7187 13.7676 18.3639C13.5761 17.3084 13.3982 16.2506 13.234 15.1906L20.0744 11.4851C20.2386 12.536 20.4164 13.5938 20.6079 14.6515C20.6695 14.9995 20.7379 15.3339 20.7995 15.6888C20.9363 16.3712 21.0731 17.1219 21.2167 17.8384C21.2988 18.2479 21.3877 18.6505 21.4767 19.0599C21.6135 19.7423 21.7571 20.377 21.9076 21.0321C22.0034 21.462 22.106 21.8851 22.2086 22.3151C22.3591 22.9565 22.5164 23.598 22.6806 24.2395L23.0636 25.7272L23.3099 26.6279C23.4877 27.3104 23.6724 27.9382 23.864 28.5865L24.0692 29.3235C24.3359 30.2107 24.6027 31.091 24.8832 31.9713L25.0336 32.4285C25.2594 33.1109 25.4851 33.7933 25.7177 34.4758C26.0529 35.4584 26.4017 36.4343 26.7574 37.4102L26.8805 37.7582C27.2841 38.8364 27.7082 39.9146 28.1392 40.986C28.3033 41.4023 28.4812 41.8118 28.6522 42.228C28.8779 42.774 29.1037 43.3131 29.3362 43.859C29.5209 44.2889 29.7193 44.712 29.904 45.142C30.0887 45.5719 30.376 46.1997 30.6222 46.7183C30.8685 47.237 31.0874 47.701 31.3063 48.1924L31.8603 49.3388C32.1134 49.8506 32.3733 50.3625 32.6401 50.8675L33.2215 51.9661C33.5978 52.6827 33.9877 53.3924 34.3776 54.1021L34.5554 54.4297C35.0137 55.2486 35.4857 56.0607 35.9645 56.8659L36.3271 57.4528C36.6828 58.0465 37.0453 58.6334 37.4147 59.2203L37.9003 59.9846C38.2697 60.5578 38.6459 61.1242 39.029 61.6906L39.3984 62.2502C39.8909 62.9667 40.3902 63.6765 40.8964 64.3862C41.626 65.3962 42.3762 66.3856 43.1469 67.3547C43.3453 67.614 43.5573 67.8665 43.7625 68.1258C44.3508 68.8628 44.9527 69.5862 45.5615 70.2959C45.8351 70.6166 46.1019 70.9374 46.3755 71.2445L46.8407 71.7699C47.3674 72.3568 47.9009 72.9369 48.4413 73.5033L48.6397 73.7217C49.2416 74.3495 49.8573 74.9637 50.4729 75.5778L50.9654 76.0487C51.4647 76.54 51.9778 77.0177 52.4908 77.4886L52.9559 77.9117C53.5989 78.4917 54.2488 79.065 54.9123 79.6177C55.0764 79.761 55.2475 79.8907 55.4116 80.0272C55.9383 80.4639 56.465 80.887 56.9986 81.3101L57.6826 81.8424C58.1478 82.1973 58.6198 82.5248 59.0917 82.8865L59.9947 83.5348C60.4735 83.8692 60.9591 84.2172 61.4516 84.5243C61.7321 84.7154 62.0126 84.9065 62.2999 85.0907C62.5872 85.275 62.9839 85.5138 63.3191 85.7254C63.8731 86.0666 64.4272 86.4078 64.9881 86.7354L66.0962 87.3632C66.6366 87.6635 67.1839 87.9569 67.7311 88.2435C68.4151 88.6052 69.0992 88.9601 69.7832 89.2945L62.9429 93C62.4093 92.7475 61.8758 92.4813 61.349 92.2152C61.1917 92.1333 61.0344 92.0378 60.8702 91.9559C60.323 91.6693 59.7758 91.369 59.2354 91.0687C58.866 90.864 58.4966 90.6593 58.1272 90.4409C57.5663 90.1133 57.0123 89.7585 56.4582 89.4309C56.1983 89.274 55.9315 89.1238 55.6784 88.9601L55.439 88.7963L54.5908 88.2367C54.0983 87.9091 53.6126 87.5543 53.1338 87.2404L52.2309 86.5921L51.4305 86.0188C51.2253 85.8687 51.027 85.7049 50.8218 85.548L50.1377 85.0157C49.6042 84.5994 49.0775 84.1695 48.5508 83.7396L48.0514 83.3301C48.0021 83.2832 47.9495 83.2399 47.8941 83.2004C47.2853 82.6818 46.6902 82.1563 46.0951 81.6241L45.6299 81.1941C45.3358 80.928 45.0348 80.655 44.7475 80.3821L44.1045 79.7611L43.612 79.2834C43.0169 78.6965 42.4218 78.1028 41.8472 77.4954L41.7788 77.4272L41.5804 77.2156C41.0378 76.6424 40.5042 76.0624 39.9798 75.4755L39.5147 74.9568C39.3847 74.7999 39.2479 74.6497 39.1111 74.4996C38.9743 74.3495 38.8443 74.1652 38.7007 74.0083C38.0919 73.2917 37.4899 72.5684 36.9017 71.8313C36.7717 71.6676 36.628 71.5106 36.4981 71.3468C36.3681 71.1831 36.3544 71.1558 36.286 71.067C35.5199 70.0912 34.7675 69.1017 34.0424 68.0917L33.9603 67.9893C33.4815 67.3069 33.0027 66.6245 32.5375 65.9421C32.4144 65.7578 32.2913 65.5668 32.1613 65.3825C31.9356 65.0413 31.6962 64.7001 31.4773 64.352L31.0463 63.6696L30.5606 62.9053C30.1913 62.3184 29.8287 61.7316 29.473 61.1379C29.3499 60.9468 29.2336 60.7489 29.1105 60.551L29.001 60.3667C28.5564 59.6229 28.1255 58.8722 27.7014 58.1147L27.5235 57.7872C27.1815 57.1662 26.8395 56.5452 26.5043 55.9174L26.3675 55.6512C26.176 55.2895 25.9913 54.921 25.7998 54.5525L25.0268 53.0307L24.4727 51.8774C24.3086 51.5294 24.1376 51.195 23.9734 50.8402L23.775 50.4102L23.0568 48.827C22.8721 48.3971 22.6737 47.974 22.489 47.5441C22.2565 47.005 22.0307 46.459 21.805 45.9131C21.6682 45.5855 21.5245 45.2307 21.3946 44.9372L21.292 44.6779C20.861 43.5997 20.4369 42.5283 20.0334 41.4433L19.9102 41.0952C19.5545 40.1194 19.2262 39.1435 18.8705 38.1608C18.8705 38.0516 18.7884 37.9356 18.7542 37.8264C18.5627 37.2532 18.3711 36.68 18.1865 36.0999C18.1386 35.9498 18.0838 35.7997 18.036 35.6427C17.7624 34.7965 17.4887 33.9162 17.2357 33.029Z" fill="url(#paint6_linear_9244_77866)"/>
<path opacity="0.8" d="M52.914 5.29547L84.5232 14.0373C87.6629 28.4226 88.1623 42.0915 85.9597 53.7813C83.4493 67.0953 77.6282 77.1132 68.6468 83.603C57.155 77.5636 47.3801 67.9074 39.5685 54.8049C32.7281 43.313 27.7347 29.7465 25.0943 15.3475L52.914 5.29547Z" fill="url(#paint7_linear_9244_77866)"/>
<path d="M46.5253 28.3681L42.9957 33.8888L66.2529 55.5761L67.1011 55.0506L70.8496 34.9398L70.0014 35.4652L64.0777 44.7393L47.3735 27.8494L46.5253 28.3681Z" fill="url(#paint8_linear_9244_77866)"/>
<path d="M47.3757 27.8494L43.8461 33.3702L67.1033 55.0506L76.5566 40.2558L70.8518 34.9398L64.9281 44.2138L47.3757 27.8494Z" fill="url(#paint9_linear_9244_77866)"/>
<defs>
<linearGradient id="paint0_linear_9244_77866" x1="58.8068" y1="94.1863" x2="87.778" y2="171.152" gradientUnits="userSpaceOnUse">
<stop stop-color="#503BCF"/>
<stop offset="1" stop-color="#4A4184"/>
</linearGradient>
<linearGradient id="paint1_linear_9244_77866" x1="58.8837" y1="101.644" x2="82.8728" y2="165.336" gradientUnits="userSpaceOnUse">
<stop stop-color="#503BCF"/>
<stop offset="1" stop-color="#4A4184"/>
</linearGradient>
<linearGradient id="paint2_linear_9244_77866" x1="59.0637" y1="117.787" x2="71.1404" y2="160.353" gradientUnits="userSpaceOnUse">
<stop stop-color="#503BCF"/>
<stop offset="1" stop-color="#4A4184"/>
</linearGradient>
<linearGradient id="paint3_linear_9244_77866" x1="59.0639" y1="94.4331" x2="79.1414" y2="147.833" gradientUnits="userSpaceOnUse">
<stop stop-color="#AA9CFF"/>
<stop offset="1" stop-color="#5C4EF5"/>
</linearGradient>
<linearGradient id="paint4_linear_9244_77866" x1="117.5" y1="87" x2="118.506" y2="184.557" gradientUnits="userSpaceOnUse">
<stop stop-color="#AA9CFF" stop-opacity="0"/>
<stop offset="1" stop-color="#5C4EF5"/>
</linearGradient>
<linearGradient id="paint5_linear_9244_77866" x1="56.7595" y1="-17.2875" x2="-5.28514" y2="59.4314" gradientUnits="userSpaceOnUse">
<stop stop-color="#AA9CFF"/>
<stop offset="1" stop-color="#5C4EF5"/>
</linearGradient>
<linearGradient id="paint6_linear_9244_77866" x1="42.1762" y1="-4.29388" x2="-15.6088" y2="57.4427" gradientUnits="userSpaceOnUse">
<stop stop-color="#AA9CFF"/>
<stop offset="1" stop-color="#5C4EF5"/>
</linearGradient>
<linearGradient id="paint7_linear_9244_77866" x1="56.9369" y1="-9.86263" x2="2.41792" y2="56.8467" gradientUnits="userSpaceOnUse">
<stop stop-color="#AA9CFF"/>
<stop offset="1" stop-color="#5C4EF5"/>
</linearGradient>
<linearGradient id="paint8_linear_9244_77866" x1="57.2515" y1="22.4823" x2="39.2909" y2="50.2696" gradientUnits="userSpaceOnUse">
<stop stop-color="#7862FF"/>
<stop offset="1" stop-color="#1A27A0" stop-opacity="0.73"/>
</linearGradient>
<linearGradient id="paint9_linear_9244_77866" x1="76.5407" y1="41.4456" x2="43.8467" y2="41.4456" gradientUnits="userSpaceOnUse">
<stop offset="0.00333374" stop-color="white"/>
<stop offset="1" stop-color="white" stop-opacity="0.06"/>
</linearGradient>
</defs>
</svg>
