<svg width="40" height="40" viewBox="0 0 40 40" fill="none" xmlns="http://www.w3.org/2000/svg">
<path d="M19.9262 38.5785C30.1766 38.5785 38.4862 30.2689 38.4862 20.0185C38.4862 9.76809 30.1766 1.4585 19.9262 1.4585C9.67581 1.4585 1.36621 9.76809 1.36621 20.0185C1.36621 30.2689 9.67581 38.5785 19.9262 38.5785Z" fill="#242138" stroke="url(#paint0_linear_228_83)" stroke-width="0.8"/>
<path fill-rule="evenodd" clip-rule="evenodd" d="M21.1504 22.1419C21.0373 22.1507 20.4528 22.1868 19.149 22.1868C18.112 22.1868 17.3757 22.1545 17.1173 22.1419C13.1097 21.9595 10.1183 21.2377 10.1183 20.3736C10.1183 19.5094 13.1097 18.7886 17.1173 18.6032V21.423C17.3795 21.4425 18.1299 21.4884 19.1669 21.4884C20.4114 21.4884 21.0346 21.4347 21.1467 21.424V18.6052C25.1459 18.7896 28.1306 19.5113 28.1306 20.3736C28.1306 21.2358 25.1469 21.9576 21.1467 22.1409L21.1504 22.1419ZM21.1504 18.3136V15.7903H26.7315V11.9424H11.5362V15.7903H17.1165V18.3126C12.5808 18.5281 9.16992 19.4577 9.16992 20.5715C9.16992 21.6854 12.5808 22.614 17.1165 22.8305V30.9164H21.1496V22.8276C25.6747 22.6121 29.08 21.6835 29.08 20.5705C29.08 19.4577 25.6776 18.5291 21.1496 18.3126L21.1504 18.3136Z" fill="white"/>
<defs>
<linearGradient id="paint0_linear_228_83" x1="1.5701" y1="25.9412" x2="37.671" y2="22.863" gradientUnits="userSpaceOnUse">
<stop stop-color="#E3163B"/>
<stop offset="1" stop-color="#4200FE" stop-opacity="0.26"/>
</linearGradient>
</defs>
</svg>
